<?xml version="1.0" encoding="UTF-8"?> <svg xmlns="http://www.w3.org/2000/svg" xmlns:xlink="http://www.w3.org/1999/xlink" version="1.1" id="Layer_1" x="0px" y="0px" viewBox="0 0 962 401" style="enable-background:new 0 0 962 401;" xml:space="preserve"> <style type="text/css"> .st0{fill:#FFFFFF;} .st1{fill:#21BECE;} </style> <g> <path id="XMLID_11_" class="st0" d="M477.5,271v-2.7c-6.8,5.5-14.2,9.6-22.2,12.5c-8,2.9-16.6,4.4-25.7,4.4 c-21.1,0-39.1-7.5-54-22.4c-14.9-14.9-22.4-32.9-22.4-54c0-21.1,7.4-39.1,22.4-54c14.9-14.9,32.9-22.4,54-22.4 c20.9,0,38.9,7.5,54,22.4c14.9,14.9,22.4,32.9,22.4,54V271c0,3.9-1.4,7.2-4.2,10c-2.8,2.8-6.1,4.2-10,4.2c-4,0-7.4-1.4-10.2-4.2 C478.9,278.2,477.5,274.9,477.5,271 M429.6,160.9c-6.7,0-13,1.3-18.8,3.8c-5.8,2.5-10.9,6-15.2,10.3c-4.3,4.3-7.7,9.4-10.2,15.2 c-2.5,5.8-3.8,12-3.8,18.6c0,6.6,1.2,12.7,3.8,18.6c2.5,5.8,5.9,10.9,10.2,15.2c4.3,4.3,9.3,7.8,15.2,10.3 c5.8,2.5,12.1,3.8,18.8,3.8c6.6,0,12.9-1.3,18.7-3.8c5.8-2.5,10.9-6,15.2-10.4c4.3-4.4,7.7-9.4,10.2-15.2 c2.5-5.8,3.8-11.9,3.8-18.5c0-6.5-1.3-12.7-3.8-18.5c-2.5-5.8-5.9-10.8-10.2-15.2c-4.3-4.4-9.4-7.8-15.2-10.4 C442.5,162.1,436.2,160.9,429.6,160.9z"></path> <path id="XMLID_8_" class="st0" d="M566.4,105.2c0,4.6-1.6,8.6-4.9,11.9c-3.3,3.3-7.2,4.9-11.9,4.9c-4.6,0-8.6-1.6-11.9-4.9 c-3.3-3.3-4.9-7.2-4.9-11.9c0-4.6,1.6-8.6,4.9-11.9c3.3-3.3,7.2-4.9,11.9-4.9c4.6,0,8.6,1.6,11.9,4.9 C564.8,96.6,566.4,100.6,566.4,105.2 M535.5,270.9V146.7c0-4,1.4-7.4,4.2-10.2c2.8-2.8,6.1-4.2,10-4.2s7.3,1.4,10,4.2 c2.8,2.8,4.2,6.2,4.3,10.2v124.2c-0.1,4-1.5,7.4-4.3,10.2c-2.8,2.8-6.1,4.2-10,4.2s-7.3-1.4-10-4.2 C536.9,278.2,535.5,274.9,535.5,270.9z"></path> <path id="XMLID_7_" class="st0" d="M621.3,146.5v2.7c6.8-5.5,14.2-9.6,22.3-12.6c8-2.9,16.6-4.4,25.6-4.4c4,0,8.3,0.3,12.9,0.8 c4.6,0.5,8.8,1.5,12.7,2.9c3.9,1.4,7.1,3.3,9.6,5.8c2.5,2.4,3.8,5.6,3.8,9.5c0,2-0.4,3.9-1.2,5.6c-0.8,1.7-1.8,3.2-3.1,4.6 c-1.3,1.3-2.8,2.3-4.5,3.1c-1.7,0.7-3.6,1.1-5.6,1.1c-1.7,0-3.7-0.5-6-1.5c-5.7-2.3-12-3.4-18.7-3.4c-6.6,0-12.9,1.2-18.7,3.7 c-5.8,2.5-10.9,5.9-15.2,10.2c-4.3,4.3-7.7,9.4-10.2,15.2c-2.5,5.8-3.8,12-3.8,18.7V271c0,3.9-1.4,7.2-4.2,10 c-2.8,2.8-6.1,4.2-10,4.2c-4,0-7.4-1.4-10.2-4.2c-2.8-2.8-4.2-6.1-4.2-10V146.5c0-3.9,1.4-7.3,4.2-10c2.8-2.8,6.2-4.2,10.2-4.2 c3.9,0,7.3,1.4,10,4.2C619.9,139.3,621.3,142.6,621.3,146.5"></path> <path id="XMLID_4_" class="st0" d="M830.5,271v-2.7c-6.8,5.5-14.2,9.6-22.2,12.5c-8,2.9-16.6,4.4-25.7,4.4 c-21.1,0-39.1-7.5-54-22.4c-14.9-14.9-22.4-32.9-22.4-54c0-21.1,7.5-39.1,22.4-54c14.9-14.9,32.9-22.4,54-22.4 c20.9,0,38.9,7.5,54,22.4c14.9,14.9,22.4,32.9,22.4,54V271c0,3.9-1.4,7.2-4.2,10c-2.8,2.8-6.1,4.2-10,4.2c-4,0-7.4-1.4-10.2-4.2 C831.9,278.2,830.5,274.9,830.5,271 M782.6,160.9c-6.7,0-13,1.3-18.8,3.8c-5.8,2.5-10.9,6-15.1,10.3c-4.3,4.3-7.7,9.4-10.2,15.2 c-2.5,5.8-3.7,12-3.7,18.6c0,6.6,1.2,12.7,3.7,18.6c2.5,5.8,5.9,10.9,10.2,15.2c4.3,4.3,9.3,7.8,15.1,10.3 c5.8,2.5,12.1,3.8,18.8,3.8c6.6,0,12.9-1.3,18.7-3.8c5.8-2.5,10.9-6,15.2-10.4c4.3-4.4,7.7-9.4,10.2-15.2 c2.5-5.8,3.7-11.9,3.7-18.5c0-6.5-1.2-12.7-3.7-18.5c-2.5-5.8-5.9-10.8-10.2-15.2c-4.3-4.4-9.4-7.8-15.2-10.4 C795.5,162.1,789.2,160.9,782.6,160.9z"></path> <g> <circle id="XMLID_14_" class="st1" cx="189.8" cy="207.8" r="121.1"></circle> <path id="XMLID_1_" class="st0" d="M222.5,253.2v-2c-5.1,4.1-10.6,7.2-16.6,9.3c-6,2.2-12.3,3.3-19.1,3.3 c-15.7,0-29.1-5.6-40.2-16.7C135.5,236,130,222.6,130,206.9c0-15.7,5.5-29.1,16.7-40.2c11.1-11.1,24.5-16.7,40.2-16.7 c15.6,0,29,5.6,40.2,16.7c11.1,11.1,16.7,24.5,16.7,40.2v46.3c0,2.9-1,5.4-3.1,7.5c-2.1,2.1-4.6,3.1-7.5,3.1c-3,0-5.5-1-7.6-3.1 C223.5,258.6,222.5,256.1,222.5,253.2 M186.9,171.2c-5,0-9.7,0.9-14,2.8c-4.3,1.9-8.1,4.5-11.3,7.7c-3.2,3.2-5.7,7-7.6,11.3 c-1.9,4.3-2.8,8.9-2.8,13.8c0,4.9,0.9,9.5,2.8,13.8c1.9,4.3,4.4,8.1,7.6,11.3c3.2,3.2,6.9,5.8,11.3,7.7c4.3,1.9,9,2.8,14,2.8 c5,0,9.6-1,13.9-2.8c4.3-1.9,8.1-4.5,11.3-7.7c3.2-3.3,5.8-7,7.6-11.3c1.9-4.3,2.8-8.9,2.8-13.8c0-4.9-0.9-9.5-2.8-13.8 c-1.9-4.3-4.4-8.1-7.6-11.3c-3.2-3.2-7-5.8-11.3-7.7C196.4,172.2,191.8,171.2,186.9,171.2z"></path> </g> </g> </svg>